<?xml version="1.0" encoding="utf-8"?>
<!-- Generator: Adobe Illustrator 28.0.0, SVG Export Plug-In . SVG Version: 6.00 Build 0)  -->
<svg version="1.1" id="Camada_1" xmlns="http://www.w3.org/2000/svg" xmlns:xlink="http://www.w3.org/1999/xlink" x="0px" y="0px"
	 viewBox="0 0 1920 1080" style="enable-background:new 0 0 1920 1080;" xml:space="preserve">
<style type="text/css">
	.st0{fill:#3F5F9C;}
</style>
<g>
	<g>
		<path class="st0" d="M261.9,475.5h170.3V521H312.4l0.2,70.8h100.2l-0.5,43H312.1l0.3,106.8h-50.5V475.5z"/>
		<path class="st0" d="M445.8,496.4c0-17,13.4-28.5,31.3-28.5c17.9,0,31.3,11.6,31.3,28.5c0,16.6-13.4,28.5-31.3,28.5
			C459.2,524.9,445.8,513,445.8,496.4z M453.1,554.9h49.2l0.2,186.7h-49.2L453.1,554.9z"/>
		<path class="st0" d="M1403.4,496.4c0-17,13.4-28.5,31.3-28.5c17.9,0,31.3,11.6,31.3,28.5c0,16.6-13.4,28.5-31.3,28.5
			C1416.8,524.9,1403.4,513,1403.4,496.4z M1410.6,554.9h49.2l0.2,186.7h-49.2L1410.6,554.9z"/>
		<path class="st0" d="M526.5,678.7v-212l50.9-9.8l-0.4,203.8c-0.5,32.5,1.5,29.5,15.2,37l-8.3,43.9
			C535.7,736.9,526.5,711.8,526.5,678.7z"/>
		<path class="st0" d="M1189.6,678.7v-212l50.9-9.8l-0.4,203.8c-0.5,32.5,1.5,29.5,15.2,37l-8.3,43.9
			C1198.7,736.9,1189.6,711.8,1189.6,678.7z"/>
		<path class="st0" d="M603.2,684.3c0-39.4,34.3-74.4,118.9-58c-0.6-19.8,2.1-35.9-39.8-39.3c-19.7-1.6-33.9,4.6-51.4,14.5
			l-14.8-32.7c21.9-12.7,49.1-21.1,80.7-21.1c49.8,0,74.1,25.3,74.1,76.5c0,0,0,43.4,0.3,61.4c0,16.7,12.8,20,12.8,20l-6.5,35.9
			c0,0-14.3,0.8-29.1-3.4c-16.1-5.1-23-21.4-23-21.4c-17.1,19.9-35.4,23.5-58.9,23.5C631.6,740.2,603.2,716.4,603.2,684.3z
			 M720.8,678.5c0-4.6-0.3-20.8-0.3-20.8c-62.2-6.9-70.7,5.2-70.7,23.7c0,16.2,14.4,22.3,31.1,22.3
			C697.2,703.7,720.8,687.3,720.8,678.5z"/>
		<path class="st0" d="M1477.3,684.3c0-39.4,34.3-74.4,118.9-58c-0.6-19.8,2.1-35.9-39.8-39.3c-19.7-1.6-33.9,4.6-51.4,14.5
			l-14.8-32.7c21.9-12.7,49.1-21.1,80.7-21.1c49.8,0,74.1,25.3,74.1,76.5c0,0,0,43.4,0.3,61.4c0,16.7,12.8,20,12.8,20l-6.5,35.9
			c0,0-14.3,0.8-29.1-3.4c-16.1-5.1-23-21.4-23-21.4c-17.1,19.9-35.4,23.5-58.9,23.5C1505.8,740.2,1477.3,716.4,1477.3,684.3z
			 M1595,678.5c0-4.6-0.3-20.8-0.3-20.8c-62.2-6.9-70.7,5.2-70.7,23.7c0,16.2,14.4,22.3,31.1,22.3
			C1571.3,703.7,1595,687.3,1595,678.5z"/>
		<path class="st0" d="M786.8,645.3c0-59.9,32-98.6,87.9-97.6c23.4,0.4,35.8,8.7,51.8,21.1v-29.6V467l48.4-8.4v278.5h-39.7
			l-2.9-25.6c-11.5,17.1-33.6,30.1-55.8,30.1C825.1,741.6,786.8,706,786.8,645.3z M926.5,644.6c0-39.2-23.1-52.7-45-52.7
			c-21.9,0-45,10.8-45,49.1c0,40,22.1,55.6,44.3,55.6S926.5,683.8,926.5,644.6z"/>
		<path class="st0" d="M991.2,645.3c0-59.8,43.2-98,92.3-98c56.4,0,89.9,37.4,89.9,88.7c0,8.2,0.5,16.7,0,22.4l-132.4,0.2
			c0,17.2,12.5,43.3,50.1,43.7c17.8,0.2,32.2-7.4,47.5-15.8l24.3,30.3c-19.9,11.8-46.3,24.8-72.8,24.8
			C1032.6,741.6,991.2,706,991.2,645.3z M1125.9,627.6c0-28.3-22.2-41.4-41.2-41.4c-19,0-43.8,11.1-43.8,41.4H1125.9z M1062,525.5
			l36.4-61.1l52.8,0.2l-49.1,60.9H1062z"/>
		<path class="st0" d="M1341,555.5c19.1,0,45.5,0,45.5,0v41.7l-47.5,0v144.4h-48.6V597.2l-32.2,0v-41.7l31.5-0.1v-28.6
			c-0.5-30,20.3-56.4,53.2-61.3c10.5-1.6,41.6-0.6,50.4,3l-5.9,40.2C1333.3,498.4,1341.5,540.6,1341,555.5z"/>
	</g>
	<g>
		<path class="st0" d="M261.9,349.4h6.2l7.8,18.3c1,2.3,1.9,4.8,2.9,7.1h0.2c1-2.4,1.8-4.8,2.8-7.1l7.7-18.3h6.2v34.2H291v-18.9
			c0-3,0.4-7.1,0.7-10.1h-0.2l-3.2,7.8l-7.7,17.7h-3.4l-7.7-17.7l-3.2-7.8h-0.2c0.3,3,0.7,7.1,0.7,10.1v18.9h-4.7V349.4z"/>
		<path class="st0" d="M356.2,349.4h4.3v34.2h-4.3V349.4z"/>
		<path class="st0" d="M420.7,349.4h4.8l13.3,21.5l3.7,6.6c0,0-0.1-6.8-0.1-10.4v-17.7h4.4v34.2H442l-13.3-21.6L425,355
			c0,0,0.1,7.1,0.1,10.7v17.9h-4.4V349.4z"/>
		<path class="st0" d="M505.4,349.4h4.3v34.2h-4.3V349.4z"/>
		<path class="st0" d="M567.6,379.2l2.6-3c2.4,2.6,5.8,4.2,9.2,4.2c4.4,0,7-2.2,7-5.6c0-3.5-2.4-4.6-5.6-6l-4.8-2.2
			c-3.1-1.4-6.8-3.8-6.8-8.8c0-5.2,4.5-9.1,10.5-9.1c4,0,7.5,1.8,9.9,4.2l-2.3,2.8c-2.1-2-4.5-3.2-7.6-3.2c-3.8,0-6.2,1.9-6.2,5
			c0,3.3,2.9,4.5,5.5,5.7l4.8,2.1c3.9,1.7,6.9,4.1,6.9,9.2c0,5.4-4.4,9.7-11.4,9.7C574.7,384.3,570.6,382.3,567.6,379.2z"/>
		<path class="st0" d="M655.6,353.1h-10.1v-3.7H670v3.7h-10.1v30.6h-4.3V353.1z"/>
		<path class="st0" d="M725.9,349.4H746v3.7h-15.7v10.7h13.2v3.7h-13.2V380h16.2v3.7h-20.6V349.4z M734.3,344.2l6.6-5.8l2.5,2.9
			l-7.2,5.1L734.3,344.2z"/>
		<path class="st0" d="M805.4,349.4h10.5c6.8,0,11.7,2.5,11.7,9.6c0,6.8-4.9,10.1-11.7,10.1h-6.2v14.5h-4.3V349.4z M815.3,365.6
			c5.2,0,8.1-2.2,8.1-6.6c0-4.5-2.9-6.1-8.1-6.1h-5.6v12.7H815.3z M815,368l3.3-2.3l10.2,17.9h-4.8L815,368z"/>
		<path class="st0" d="M885,349.4h6.2v34.2H885V349.4z"/>
		<path class="st0" d="M946.9,365.5c0-11,7.2-17.6,17.4-17.6s17.4,6.7,17.4,17.6c0,11-7.2,17.9-17.4,17.9S946.9,376.5,946.9,365.5z
			 M976.3,365.5c0-8.5-4.8-13.8-12.1-13.8c-7.3,0-12.1,5.3-12.1,13.8c0,8.5,4.8,14,12.1,14C971.5,379.6,976.3,374.1,976.3,365.5z"/>
	</g>
</g>
</svg>
